<svg xmlns="http://www.w3.org/2000/svg" xmlns:xlink="http://www.w3.org/1999/xlink" width="500" zoomAndPan="magnify" viewBox="0 0 375 374.999991" height="500" preserveAspectRatio="xMidYMid meet" version="1.0"><defs><filter x="0%" y="0%" width="100%" height="100%" id="5c28073abc"><feColorMatrix values="0 0 0 0 1 0 0 0 0 1 0 0 0 0 1 0 0 0 1 0" color-interpolation-filters="sRGB"/></filter><g/><clipPath id="be68be1b3b"><path d="M 187.003906 141.972656 L 292.359375 141.972656 L 292.359375 284 L 187.003906 284 Z M 187.003906 141.972656 " clip-rule="nonzero"/></clipPath><mask id="b1fff57310"><g filter="url(#5c28073abc)"><rect x="-37.5" width="450" fill="#000000" y="-37.499999" height="449.999989" fill-opacity="0.64"/></g></mask><clipPath id="555abdc699"><path d="M 1 0.441406 L 158 0.441406 L 158 362 L 1 362 Z M 1 0.441406 " clip-rule="nonzero"/></clipPath><clipPath id="a42d03da63"><path d="M 121.644531 0.667969 L 226.097656 39.53125 L 105.5625 363.503906 L 1.105469 324.640625 Z M 121.644531 0.667969 " clip-rule="nonzero"/></clipPath><clipPath id="514c0a76a6"><path d="M 121.644531 0.667969 L 226.097656 39.53125 L 105.582031 363.453125 L 1.125 324.589844 Z M 121.644531 0.667969 " clip-rule="nonzero"/></clipPath><clipPath id="356d1deccf"><rect x="0" width="158" y="0" height="362"/></clipPath></defs><rect x="-37.5" width="450" fill="#ffffff" y="-37.499999" height="449.999989" fill-opacity="1"/><rect x="-37.5" width="450" fill="#20013f" y="-37.499999" height="449.999989" fill-opacity="1"/><g fill="#ffffff" fill-opacity="1"><g transform="translate(17.323237, 285.573413)"><g><path d="M 161.75 -50.96875 L 72.375 -50.96875 L 55.390625 0 L 1.1875 0 L 93.28125 -247.390625 L 140.515625 -247.390625 L 233.109375 0 L 178.90625 0 Z M 86.140625 -92.265625 L 147.984375 -92.265625 L 116.890625 -184.859375 Z M 86.140625 -92.265625 "/></g></g></g><g clip-path="url(#be68be1b3b)"><path fill="#20013f" d="M 187.003906 141.972656 L 292.359375 141.972656 L 292.359375 283.957031 L 187.003906 283.957031 Z M 187.003906 141.972656 " fill-opacity="1" fill-rule="nonzero"/></g><g fill="#8d0707" fill-opacity="1"><g transform="translate(152.162236, 285.573413)"><g><path d="M 22.09375 0 L 22.09375 -247.390625 L 108.734375 -247.390625 C 138.753906 -247.390625 161.519531 -241.640625 177.03125 -230.140625 C 192.550781 -218.640625 200.3125 -201.789062 200.3125 -179.59375 C 200.3125 -167.46875 197.195312 -156.789062 190.96875 -147.5625 C 184.738281 -138.332031 176.078125 -131.566406 164.984375 -127.265625 C 177.671875 -124.085938 187.664062 -117.6875 194.96875 -108.0625 C 202.269531 -98.4375 205.921875 -86.65625 205.921875 -72.71875 C 205.921875 -48.9375 198.332031 -30.925781 183.15625 -18.6875 C 167.976562 -6.457031 146.34375 -0.226562 118.25 0 Z M 73.0625 -107.71875 L 73.0625 -40.953125 L 116.71875 -40.953125 C 128.726562 -40.953125 138.101562 -43.8125 144.84375 -49.53125 C 151.582031 -55.25 154.953125 -63.148438 154.953125 -73.234375 C 154.953125 -95.890625 143.226562 -107.382812 119.78125 -107.71875 Z M 73.0625 -143.734375 L 110.78125 -143.734375 C 136.488281 -144.191406 149.34375 -154.445312 149.34375 -174.5 C 149.34375 -185.707031 146.085938 -193.773438 139.578125 -198.703125 C 133.066406 -203.628906 122.785156 -206.09375 108.734375 -206.09375 L 73.0625 -206.09375 Z M 73.0625 -143.734375 "/></g></g></g><path stroke-linecap="round" transform="matrix(0.303647, -0.80451, 0.80451, 0.303647, 208.759313, 295.392314)" fill="none" stroke-linejoin="miter" d="M 7.498972 7.500162 L 324.088701 7.501649 " stroke="#20013f" stroke-width="15" stroke-opacity="1" stroke-miterlimit="4"/><path stroke-linecap="round" transform="matrix(0, -0.859906, 0.859906, 0, 164.229721, 298.795936)" fill="none" stroke-linejoin="miter" d="M 7.49882 7.500781 L 324.089556 7.500781 " stroke="#20013f" stroke-width="15" stroke-opacity="1" stroke-miterlimit="4"/><g mask="url(#b1fff57310)"><g transform="matrix(1, 0, 0, 1, 217, 13)"><g clip-path="url(#356d1deccf)"><g clip-path="url(#555abdc699)"><g clip-path="url(#a42d03da63)"><g clip-path="url(#514c0a76a6)"><path fill="#20013f" d="M 121.644531 0.667969 L 226.097656 39.53125 L 105.5625 363.503906 L 1.105469 324.640625 Z M 121.644531 0.667969 " fill-opacity="1" fill-rule="nonzero"/></g></g></g></g></g></g><g fill="#d6a6a6" fill-opacity="1"><g transform="translate(212.457474, 281.774834)"><g><path d="M -1.828125 -1.9375 C -3.921875 -2.25 -7.78125 -2.425781 -13.40625 -2.46875 C -17.425781 -2.46875 -20.550781 -2.320312 -22.78125 -2.03125 C -23.050781 -3.476562 -23.1875 -5.332031 -23.1875 -7.59375 C -23.1875 -9.4375 -22.988281 -11.101562 -22.59375 -12.59375 C -22.207031 -14.082031 -21.582031 -15.4375 -20.71875 -16.65625 C -19.863281 -17.882812 -18.65625 -18.835938 -17.09375 -19.515625 C -15.53125 -20.203125 -13.65625 -20.546875 -11.46875 -20.546875 C -8.03125 -20.546875 -5.203125 -19.59375 -2.984375 -17.6875 C -0.765625 -15.78125 0.34375 -13.050781 0.34375 -9.5 C 0.34375 -6.238281 -0.378906 -3.71875 -1.828125 -1.9375 Z M -20.390625 -5.921875 C -18.898438 -6.015625 -17.144531 -6.0625 -15.125 -6.0625 C -10.363281 -6.0625 -6.523438 -5.898438 -3.609375 -5.578125 C -2.804688 -6.679688 -2.40625 -8.046875 -2.40625 -9.671875 C -2.40625 -10.960938 -2.664062 -12.078125 -3.1875 -13.015625 C -3.707031 -13.960938 -4.394531 -14.679688 -5.25 -15.171875 C -6.113281 -15.671875 -7.007812 -16.035156 -7.9375 -16.265625 C -8.875 -16.492188 -9.84375 -16.609375 -10.84375 -16.609375 C -14.0625 -16.609375 -16.484375 -15.851562 -18.109375 -14.34375 C -19.734375 -12.84375 -20.546875 -10.691406 -20.546875 -7.890625 C -20.546875 -7.453125 -20.492188 -6.796875 -20.390625 -5.921875 Z M -20.390625 -5.921875 "/></g></g></g><g fill="#d6a6a6" fill-opacity="1"><g transform="translate(212.457474, 251.870069)"><g><path d="M -20.09375 -5.890625 C -19.1875 -5.972656 -17.035156 -6.015625 -13.640625 -6.015625 L -13.640625 -8.609375 C -13.640625 -10.453125 -13.6875 -11.757812 -13.78125 -12.53125 C -13.570312 -12.632812 -13.207031 -12.6875 -12.6875 -12.6875 C -12.03125 -12.6875 -11.582031 -12.570312 -11.34375 -12.34375 C -11.101562 -12.113281 -10.972656 -11.742188 -10.953125 -11.234375 C -10.929688 -10.648438 -10.921875 -9.878906 -10.921875 -8.921875 L -10.921875 -6.015625 C -6.359375 -6.015625 -3.613281 -6.101562 -2.6875 -6.28125 C -2.644531 -7.238281 -2.625 -8.023438 -2.625 -8.640625 C -2.625 -12.328125 -2.875 -14.707031 -3.375 -15.78125 C -2.851562 -15.957031 -2.242188 -16.046875 -1.546875 -16.046875 C -1.015625 -16.046875 -0.648438 -15.945312 -0.453125 -15.75 C -0.109375 -15.3125 0.0625 -13.347656 0.0625 -9.859375 C 0.0625 -6.734375 0.0390625 -4.828125 0 -4.140625 C -0.0195312 -3.421875 -0.171875 -2.941406 -0.453125 -2.703125 C -0.742188 -2.460938 -1.25 -2.34375 -1.96875 -2.34375 C -2.40625 -2.34375 -3.347656 -2.351562 -4.796875 -2.375 C -6.242188 -2.394531 -7.351562 -2.40625 -8.125 -2.40625 L -14.828125 -2.40625 C -18.023438 -2.40625 -20.628906 -2.25 -22.640625 -1.9375 C -22.847656 -4.4375 -22.953125 -6.992188 -22.953125 -9.609375 C -22.953125 -13.003906 -22.773438 -14.921875 -22.421875 -15.359375 C -22.222656 -15.566406 -21.859375 -15.671875 -21.328125 -15.671875 C -20.628906 -15.671875 -20.007812 -15.578125 -19.46875 -15.390625 C -19.945312 -14.140625 -20.1875 -12.144531 -20.1875 -9.40625 C -20.1875 -8.300781 -20.15625 -7.128906 -20.09375 -5.890625 Z M -20.09375 -5.890625 "/></g></g></g><g fill="#d6a6a6" fill-opacity="1"><g transform="translate(212.457474, 227.027416)"><g><path d="M -22.953125 -15.75 C -23.109375 -16.363281 -23.1875 -16.992188 -23.1875 -17.640625 C -23.1875 -18.367188 -23.054688 -18.878906 -22.796875 -19.171875 C -22.546875 -19.472656 -22.113281 -19.625 -21.5 -19.625 C -18.976562 -19.625 -15.597656 -18.820312 -11.359375 -17.21875 C -7.117188 -15.625 -3.925781 -13.984375 -1.78125 -12.296875 C -1.03125 -11.703125 -0.53125 -11.171875 -0.28125 -10.703125 C -0.03125 -10.234375 0.09375 -9.664062 0.09375 -9 C 0.09375 -8.394531 0.0625 -7.945312 0 -7.65625 C -3.695312 -6.914062 -7.921875 -5.664062 -12.671875 -3.90625 C -17.429688 -2.15625 -20.421875 -0.65625 -21.640625 0.59375 C -22.535156 -0.632812 -22.984375 -1.660156 -22.984375 -2.484375 C -22.984375 -3.304688 -22.554688 -3.9375 -21.703125 -4.375 C -19.816406 -5.289062 -17.140625 -6.328125 -13.671875 -7.484375 C -10.210938 -8.648438 -7.035156 -9.597656 -4.140625 -10.328125 C -6.335938 -11.847656 -9.125 -13.148438 -12.5 -14.234375 C -15.875 -15.328125 -18.796875 -15.875 -21.265625 -15.875 C -22.054688 -15.875 -22.617188 -15.832031 -22.953125 -15.75 Z M -22.953125 -15.75 "/></g></g></g><g fill="#d6a6a6" fill-opacity="1"><g transform="translate(212.457474, 199.19123)"><g><path d="M -20.09375 -5.890625 C -19.1875 -5.972656 -17.035156 -6.015625 -13.640625 -6.015625 L -13.640625 -8.609375 C -13.640625 -10.453125 -13.6875 -11.757812 -13.78125 -12.53125 C -13.570312 -12.632812 -13.207031 -12.6875 -12.6875 -12.6875 C -12.03125 -12.6875 -11.582031 -12.570312 -11.34375 -12.34375 C -11.101562 -12.113281 -10.972656 -11.742188 -10.953125 -11.234375 C -10.929688 -10.648438 -10.921875 -9.878906 -10.921875 -8.921875 L -10.921875 -6.015625 C -6.359375 -6.015625 -3.613281 -6.101562 -2.6875 -6.28125 C -2.644531 -7.238281 -2.625 -8.023438 -2.625 -8.640625 C -2.625 -12.328125 -2.875 -14.707031 -3.375 -15.78125 C -2.851562 -15.957031 -2.242188 -16.046875 -1.546875 -16.046875 C -1.015625 -16.046875 -0.648438 -15.945312 -0.453125 -15.75 C -0.109375 -15.3125 0.0625 -13.347656 0.0625 -9.859375 C 0.0625 -6.734375 0.0390625 -4.828125 0 -4.140625 C -0.0195312 -3.421875 -0.171875 -2.941406 -0.453125 -2.703125 C -0.742188 -2.460938 -1.25 -2.34375 -1.96875 -2.34375 C -2.40625 -2.34375 -3.347656 -2.351562 -4.796875 -2.375 C -6.242188 -2.394531 -7.351562 -2.40625 -8.125 -2.40625 L -14.828125 -2.40625 C -18.023438 -2.40625 -20.628906 -2.25 -22.640625 -1.9375 C -22.847656 -4.4375 -22.953125 -6.992188 -22.953125 -9.609375 C -22.953125 -13.003906 -22.773438 -14.921875 -22.421875 -15.359375 C -22.222656 -15.566406 -21.859375 -15.671875 -21.328125 -15.671875 C -20.628906 -15.671875 -20.007812 -15.578125 -19.46875 -15.390625 C -19.945312 -14.140625 -20.1875 -12.144531 -20.1875 -9.40625 C -20.1875 -8.300781 -20.15625 -7.128906 -20.09375 -5.890625 Z M -20.09375 -5.890625 "/></g></g></g><g fill="#d6a6a6" fill-opacity="1"><g transform="translate(212.457474, 174.348573)"><g><path d="M -7.71875 -2.171875 L -14.859375 -2.171875 C -18.085938 -2.171875 -20.75 -2.09375 -22.84375 -1.9375 C -22.914062 -2.457031 -22.953125 -3.082031 -22.953125 -3.8125 C -22.953125 -5.3125 -22.515625 -6.0625 -21.640625 -6.0625 C -21.503906 -6.0625 -21.039062 -6.035156 -20.25 -5.984375 C -19.457031 -5.941406 -18.46875 -5.894531 -17.28125 -5.84375 C -16.101562 -5.800781 -14.976562 -5.78125 -13.90625 -5.78125 L -10.953125 -5.78125 C -6.410156 -5.78125 -3.65625 -5.859375 -2.6875 -6.015625 C -2.644531 -6.941406 -2.625 -7.675781 -2.625 -8.21875 C -2.625 -11.613281 -2.890625 -13.800781 -3.421875 -14.78125 C -2.910156 -15.03125 -2.34375 -15.15625 -1.71875 -15.15625 C -0.96875 -15.15625 -0.484375 -14.863281 -0.265625 -14.28125 C -0.046875 -13.695312 0.0625 -12.726562 0.0625 -11.375 L 0.0625 -8.375 C 0.0625 -6.320312 0.0390625 -4.789062 0 -3.78125 C -0.0195312 -3.144531 -0.175781 -2.707031 -0.46875 -2.46875 C -0.769531 -2.226562 -1.269531 -2.109375 -1.96875 -2.109375 C -2.332031 -2.109375 -3.179688 -2.117188 -4.515625 -2.140625 C -5.847656 -2.160156 -6.914062 -2.171875 -7.71875 -2.171875 Z M -7.71875 -2.171875 "/></g></g></g><g fill="#d6a6a6" fill-opacity="1"><g transform="translate(212.457474, 151.27176)"><g><path d="M 0.34375 -12.296875 C 0.34375 -8.984375 -0.722656 -6.347656 -2.859375 -4.390625 C -4.992188 -2.429688 -7.84375 -1.453125 -11.40625 -1.453125 C -15.007812 -1.453125 -17.875 -2.429688 -20 -4.390625 C -22.125 -6.347656 -23.1875 -8.984375 -23.1875 -12.296875 C -23.1875 -15.648438 -22.125 -18.3125 -20 -20.28125 C -17.875 -22.257812 -15.007812 -23.25 -11.40625 -23.25 C -7.84375 -23.25 -4.992188 -22.253906 -2.859375 -20.265625 C -0.722656 -18.285156 0.34375 -15.628906 0.34375 -12.296875 Z M -10.8125 -19.328125 C -12.476562 -19.328125 -14.003906 -19.113281 -15.390625 -18.6875 C -16.773438 -18.257812 -17.96875 -17.5 -18.96875 -16.40625 C -19.96875 -15.320312 -20.46875 -13.972656 -20.46875 -12.359375 C -20.46875 -10.234375 -19.710938 -8.535156 -18.203125 -7.265625 C -16.703125 -5.992188 -14.765625 -5.359375 -12.390625 -5.359375 C -10.679688 -5.359375 -9.101562 -5.570312 -7.65625 -6 C -6.207031 -6.425781 -4.960938 -7.1875 -3.921875 -8.28125 C -2.890625 -9.375 -2.375 -10.722656 -2.375 -12.328125 C -2.375 -14.554688 -3.15625 -16.28125 -4.71875 -17.5 C -6.28125 -18.71875 -8.3125 -19.328125 -10.8125 -19.328125 Z M -10.8125 -19.328125 "/></g></g></g><g fill="#d6a6a6" fill-opacity="1"><g transform="translate(212.457474, 118.692998)"><g><path d="M -10.75 -8.875 C -10.75 -10.1875 -11.164062 -11.207031 -12 -11.9375 C -12.832031 -12.675781 -13.960938 -13.046875 -15.390625 -13.046875 C -17.359375 -13.046875 -18.707031 -12.632812 -19.4375 -11.8125 C -20.175781 -10.988281 -20.546875 -9.703125 -20.546875 -7.953125 C -20.546875 -7.472656 -20.492188 -6.773438 -20.390625 -5.859375 C -19.148438 -5.941406 -17.015625 -5.984375 -13.984375 -5.984375 L -11.34375 -5.984375 C -10.945312 -6.753906 -10.75 -7.71875 -10.75 -8.875 Z M -7.953125 -2.375 L -14.859375 -2.375 C -18.015625 -2.375 -20.65625 -2.226562 -22.78125 -1.9375 C -23.050781 -3.695312 -23.1875 -5.484375 -23.1875 -7.296875 C -23.1875 -13.753906 -20.648438 -16.984375 -15.578125 -16.984375 C -13.117188 -16.984375 -11.242188 -16.285156 -9.953125 -14.890625 C -8.671875 -13.503906 -8.03125 -11.875 -8.03125 -10 C -8.03125 -8.457031 -8.398438 -7.117188 -9.140625 -5.984375 L -6.75 -5.984375 C -3.757812 -5.984375 -1.566406 -6.203125 -0.171875 -6.640625 C 0.00390625 -6.097656 0.09375 -5.398438 0.09375 -4.546875 C 0.09375 -3.648438 -0.0507812 -3.050781 -0.34375 -2.75 C -0.644531 -2.457031 -1.15625 -2.3125 -1.875 -2.3125 C -2.226562 -2.3125 -3.128906 -2.320312 -4.578125 -2.34375 C -6.023438 -2.363281 -7.148438 -2.375 -7.953125 -2.375 Z M -7.953125 -2.375 "/></g></g></g><g fill="#d6a6a6" fill-opacity="1"><g transform="translate(212.457474, 93.211271)"><g><path d="M -20.09375 -5.890625 C -19.1875 -5.972656 -17.035156 -6.015625 -13.640625 -6.015625 L -13.640625 -8.609375 C -13.640625 -10.453125 -13.6875 -11.757812 -13.78125 -12.53125 C -13.570312 -12.632812 -13.207031 -12.6875 -12.6875 -12.6875 C -12.03125 -12.6875 -11.582031 -12.570312 -11.34375 -12.34375 C -11.101562 -12.113281 -10.972656 -11.742188 -10.953125 -11.234375 C -10.929688 -10.648438 -10.921875 -9.878906 -10.921875 -8.921875 L -10.921875 -6.015625 C -6.359375 -6.015625 -3.613281 -6.101562 -2.6875 -6.28125 C -2.644531 -7.238281 -2.625 -8.023438 -2.625 -8.640625 C -2.625 -12.328125 -2.875 -14.707031 -3.375 -15.78125 C -2.851562 -15.957031 -2.242188 -16.046875 -1.546875 -16.046875 C -1.015625 -16.046875 -0.648438 -15.945312 -0.453125 -15.75 C -0.109375 -15.3125 0.0625 -13.347656 0.0625 -9.859375 C 0.0625 -6.734375 0.0390625 -4.828125 0 -4.140625 C -0.0195312 -3.421875 -0.171875 -2.941406 -0.453125 -2.703125 C -0.742188 -2.460938 -1.25 -2.34375 -1.96875 -2.34375 C -2.40625 -2.34375 -3.347656 -2.351562 -4.796875 -2.375 C -6.242188 -2.394531 -7.351562 -2.40625 -8.125 -2.40625 L -14.828125 -2.40625 C -18.023438 -2.40625 -20.628906 -2.25 -22.640625 -1.9375 C -22.847656 -4.4375 -22.953125 -6.992188 -22.953125 -9.609375 C -22.953125 -13.003906 -22.773438 -14.921875 -22.421875 -15.359375 C -22.222656 -15.566406 -21.859375 -15.671875 -21.328125 -15.671875 C -20.628906 -15.671875 -20.007812 -15.578125 -19.46875 -15.390625 C -19.945312 -14.140625 -20.1875 -12.144531 -20.1875 -9.40625 C -20.1875 -8.300781 -20.15625 -7.128906 -20.09375 -5.890625 Z M -20.09375 -5.890625 "/></g></g></g><g fill="#d6a6a6" fill-opacity="1"><g transform="translate(212.457474, 68.368615)"><g><path d="M -3.28125 -15.515625 C -2.632812 -16.035156 -2.3125 -16.640625 -2.3125 -17.328125 C -2.3125 -17.585938 -2.34375 -17.851562 -2.40625 -18.125 C -1.925781 -18.332031 -1.53125 -18.4375 -1.21875 -18.4375 C -0.6875 -18.4375 -0.289062 -18.148438 -0.03125 -17.578125 C 0.21875 -17.015625 0.34375 -16.335938 0.34375 -15.546875 C 0.34375 -14.210938 -0.304688 -13.03125 -1.609375 -12 C -2.503906 -11.28125 -3.738281 -10.53125 -5.3125 -9.75 C -6.894531 -8.96875 -8.269531 -8.359375 -9.4375 -7.921875 C -9.644531 -7.398438 -10.015625 -7.140625 -10.546875 -7.140625 C -10.984375 -7.140625 -11.429688 -7.226562 -11.890625 -7.40625 C -11.796875 -7.769531 -11.75 -8.195312 -11.75 -8.6875 C -11.75 -9.925781 -12.117188 -10.960938 -12.859375 -11.796875 C -13.609375 -12.628906 -14.722656 -13.046875 -16.203125 -13.046875 C -17.828125 -13.046875 -18.957031 -12.644531 -19.59375 -11.84375 C -20.226562 -11.050781 -20.546875 -9.800781 -20.546875 -8.09375 C -20.546875 -7.476562 -20.492188 -6.734375 -20.390625 -5.859375 C -19.109375 -5.941406 -16.828125 -5.984375 -13.546875 -5.984375 L -6.828125 -5.984375 C -3.785156 -5.984375 -1.566406 -6.203125 -0.171875 -6.640625 C 0.00390625 -6.140625 0.09375 -5.429688 0.09375 -4.515625 C 0.09375 -3.671875 -0.0507812 -3.09375 -0.34375 -2.78125 C -0.644531 -2.46875 -1.15625 -2.3125 -1.875 -2.3125 C -2.226562 -2.3125 -3.128906 -2.320312 -4.578125 -2.34375 C -6.023438 -2.363281 -7.148438 -2.375 -7.953125 -2.375 L -14.859375 -2.375 C -18.015625 -2.375 -20.65625 -2.226562 -22.78125 -1.9375 C -23.050781 -3.695312 -23.1875 -5.492188 -23.1875 -7.328125 C -23.1875 -13.796875 -20.859375 -17.03125 -16.203125 -17.03125 C -14.429688 -17.03125 -12.960938 -16.550781 -11.796875 -15.59375 C -10.640625 -14.644531 -9.851562 -13.382812 -9.4375 -11.8125 C -6.238281 -13.3125 -4.1875 -14.546875 -3.28125 -15.515625 Z M -3.28125 -15.515625 "/></g></g></g><g fill="#8d0707" fill-opacity="1"><g transform="translate(241.032398, 279.2135)"><g><path d="M 27.34375 -22.265625 C 27.957031 -22.421875 28.570312 -22.5 29.1875 -22.5 C 29.894531 -22.5 30.394531 -22.375 30.6875 -22.125 C 30.988281 -21.882812 31.140625 -21.460938 31.140625 -20.859375 C 31.140625 -18.410156 30.398438 -15.128906 28.921875 -11.015625 C 27.441406 -6.898438 25.9375 -3.804688 24.40625 -1.734375 C 23.875 -1.003906 23.382812 -0.515625 22.9375 -0.265625 C 22.488281 -0.0234375 21.96875 0.09375 21.375 0.09375 C 20.84375 0.09375 20.4375 0.0625 20.15625 0 C 19.394531 -3.9375 18.148438 -8.296875 16.421875 -13.078125 C 15.722656 -10.867188 14.90625 -8.722656 13.96875 -6.640625 C 13.039062 -4.554688 12.128906 -2.921875 11.234375 -1.734375 C 10.703125 -1.003906 10.210938 -0.515625 9.765625 -0.265625 C 9.316406 -0.0234375 8.796875 0.09375 8.203125 0.09375 C 7.660156 0.09375 7.253906 0.0625 6.984375 0 C 6.316406 -3.59375 5.175781 -7.695312 3.5625 -12.3125 C 1.945312 -16.925781 0.566406 -19.820312 -0.578125 -21 C 0.609375 -21.863281 1.601562 -22.296875 2.40625 -22.296875 C 3.269531 -22.296875 3.882812 -21.882812 4.25 -21.0625 C 5.070312 -19.144531 5.984375 -16.523438 6.984375 -13.203125 C 7.984375 -9.890625 8.8125 -6.828125 9.46875 -4.015625 C 10.800781 -6.148438 11.941406 -8.851562 12.890625 -12.125 C 13.835938 -15.40625 14.3125 -18.242188 14.3125 -20.640625 C 14.3125 -21.410156 14.265625 -21.953125 14.171875 -22.265625 C 14.785156 -22.421875 15.398438 -22.5 16.015625 -22.5 C 16.734375 -22.5 17.234375 -22.375 17.515625 -22.125 C 17.804688 -21.882812 17.953125 -21.460938 17.953125 -20.859375 C 17.953125 -20.671875 17.929688 -20.351562 17.890625 -19.90625 C 19.617188 -15.457031 21.195312 -10.160156 22.625 -4.015625 C 23.96875 -6.148438 25.113281 -8.851562 26.0625 -12.125 C 27.007812 -15.40625 27.484375 -18.242188 27.484375 -20.640625 C 27.484375 -21.410156 27.4375 -21.953125 27.34375 -22.265625 Z M 27.34375 -22.265625 "/></g></g></g><g fill="#8d0707" fill-opacity="1"><g transform="translate(274.101737, 279.2135)"><g><path d="M 5.71875 -19.5 C 5.800781 -18.625 5.84375 -16.535156 5.84375 -13.234375 L 8.359375 -13.234375 C 10.140625 -13.234375 11.40625 -13.28125 12.15625 -13.375 C 12.257812 -13.175781 12.3125 -12.820312 12.3125 -12.3125 C 12.3125 -11.675781 12.195312 -11.238281 11.96875 -11 C 11.75 -10.769531 11.394531 -10.644531 10.90625 -10.625 C 10.34375 -10.601562 9.59375 -10.59375 8.65625 -10.59375 L 5.84375 -10.59375 C 5.84375 -6.164062 5.925781 -3.503906 6.09375 -2.609375 C 7.03125 -2.566406 7.796875 -2.546875 8.390625 -2.546875 C 11.960938 -2.546875 14.269531 -2.789062 15.3125 -3.28125 C 15.488281 -2.769531 15.578125 -2.175781 15.578125 -1.5 C 15.578125 -0.988281 15.476562 -0.632812 15.28125 -0.4375 C 14.851562 -0.101562 12.945312 0.0625 9.5625 0.0625 C 6.53125 0.0625 4.679688 0.0390625 4.015625 0 C 3.316406 -0.0195312 2.847656 -0.164062 2.609375 -0.4375 C 2.378906 -0.71875 2.265625 -1.207031 2.265625 -1.90625 C 2.265625 -2.332031 2.273438 -3.25 2.296875 -4.65625 C 2.316406 -6.0625 2.328125 -7.140625 2.328125 -7.890625 L 2.328125 -14.390625 C 2.328125 -17.492188 2.175781 -20.019531 1.875 -21.96875 C 4.300781 -22.164062 6.785156 -22.265625 9.328125 -22.265625 C 12.617188 -22.265625 14.476562 -22.097656 14.90625 -21.765625 C 15.113281 -21.566406 15.21875 -21.210938 15.21875 -20.703125 C 15.21875 -20.023438 15.125 -19.421875 14.9375 -18.890625 C 13.71875 -19.359375 11.78125 -19.59375 9.125 -19.59375 C 8.0625 -19.59375 6.925781 -19.5625 5.71875 -19.5 Z M 5.71875 -19.5 "/></g></g></g><g fill="#8d0707" fill-opacity="1"><g transform="translate(291.893176, 279.2135)"><g><path d="M 7.6875 -19.9375 C 7.257812 -19.9375 6.644531 -19.882812 5.84375 -19.78125 C 5.9375 -18.09375 5.984375 -15.835938 5.984375 -13.015625 C 6.566406 -12.972656 7.070312 -12.953125 7.5 -12.953125 C 10.832031 -12.953125 12.5 -14.097656 12.5 -16.390625 C 12.5 -18.753906 10.894531 -19.9375 7.6875 -19.9375 Z M 9.03125 -2.234375 C 10.238281 -2.234375 11.253906 -2.601562 12.078125 -3.34375 C 12.898438 -4.09375 13.3125 -5.117188 13.3125 -6.421875 C 13.3125 -7.867188 12.859375 -8.972656 11.953125 -9.734375 C 11.046875 -10.492188 9.925781 -10.875 8.59375 -10.875 C 7.394531 -10.875 6.515625 -10.8125 5.953125 -10.6875 C 5.953125 -9.726562 5.898438 -8.414062 5.796875 -6.75 C 5.703125 -5.082031 5.609375 -3.976562 5.515625 -3.4375 C 5.878906 -3.101562 6.398438 -2.816406 7.078125 -2.578125 C 7.753906 -2.347656 8.40625 -2.234375 9.03125 -2.234375 Z M 1.96875 -1.78125 C 2.332031 -4.3125 2.515625 -8.035156 2.515625 -12.953125 C 2.515625 -17.097656 2.367188 -20.148438 2.078125 -22.109375 C 3.796875 -22.367188 5.65625 -22.5 7.65625 -22.5 C 10.195312 -22.5 12.273438 -22.050781 13.890625 -21.15625 C 15.503906 -20.269531 16.3125 -18.800781 16.3125 -16.75 C 16.3125 -14.519531 15.34375 -12.96875 13.40625 -12.09375 C 15.882812 -11.050781 17.125 -9.148438 17.125 -6.390625 C 17.125 -4.273438 16.398438 -2.625 14.953125 -1.4375 C 13.515625 -0.257812 11.765625 0.328125 9.703125 0.328125 C 6.335938 0.328125 3.757812 -0.375 1.96875 -1.78125 Z M 1.96875 -1.78125 "/></g></g></g><g fill="#ffffff" fill-opacity="1"><g transform="translate(15.495821, 334.275648)"><g><path d="M 14.9375 -16.390625 L 6.8125 -9.390625 C 7.738281 -8.460938 10.445312 -5.976562 14.9375 -1.9375 C 14.488281 -1.09375 13.878906 -0.671875 13.109375 -0.671875 C 12.753906 -0.671875 12.441406 -0.804688 12.171875 -1.078125 L 3.96875 -9.390625 L 12.171875 -17.25 C 12.492188 -17.53125 12.820312 -17.671875 13.15625 -17.671875 C 13.5 -17.671875 13.835938 -17.539062 14.171875 -17.28125 C 14.503906 -17.019531 14.757812 -16.722656 14.9375 -16.390625 Z M 14.9375 -16.390625 "/></g></g></g><g fill="#ffffff" fill-opacity="1"><g transform="translate(44.851146, 334.275648)"><g><path d="M 14.671875 -11.6875 L 14.609375 -6.625 C 14.609375 -3.757812 14.84375 -1.613281 15.3125 -0.1875 C 14.914062 0.0078125 14.4375 0.109375 13.875 0.109375 C 13.3125 0.109375 12.914062 -0.0195312 12.6875 -0.28125 C 12.46875 -0.539062 12.320312 -0.957031 12.25 -1.53125 C 10.695312 -0.269531 9.097656 0.359375 7.453125 0.359375 C 3.609375 0.359375 1.6875 -1.394531 1.6875 -4.90625 C 1.6875 -6.175781 1.984375 -7.109375 2.578125 -7.703125 C 3.171875 -8.304688 3.992188 -8.757812 5.046875 -9.0625 C 6.921875 -9.5625 9.296875 -9.898438 12.171875 -10.078125 C 12.171875 -12.191406 11.910156 -13.65625 11.390625 -14.46875 C 10.867188 -15.28125 9.753906 -15.6875 8.046875 -15.6875 C 7.347656 -15.6875 6.625 -15.457031 5.875 -15 C 5.125 -14.550781 4.5625 -13.90625 4.1875 -13.0625 C 3.039062 -13.289062 2.46875 -13.789062 2.46875 -14.5625 C 2.46875 -15.539062 3.066406 -16.320312 4.265625 -16.90625 C 5.460938 -17.488281 7.003906 -17.78125 8.890625 -17.78125 C 10.753906 -17.78125 12.179688 -17.335938 13.171875 -16.453125 C 14.171875 -15.566406 14.671875 -13.976562 14.671875 -11.6875 Z M 12.140625 -8.15625 C 11.410156 -8.082031 10.863281 -8.019531 10.5 -7.96875 C 10.144531 -7.914062 9.65625 -7.851562 9.03125 -7.78125 C 8.414062 -7.707031 7.957031 -7.632812 7.65625 -7.5625 C 7.363281 -7.488281 7 -7.390625 6.5625 -7.265625 C 6.132812 -7.140625 5.8125 -7 5.59375 -6.84375 C 5.382812 -6.695312 5.164062 -6.535156 4.9375 -6.359375 C 4.519531 -6.003906 4.3125 -5.519531 4.3125 -4.90625 C 4.3125 -3.78125 4.632812 -2.945312 5.28125 -2.40625 C 5.925781 -1.875 6.75 -1.609375 7.75 -1.609375 C 9.445312 -1.609375 10.878906 -2.171875 12.046875 -3.296875 C 12.023438 -3.648438 12.015625 -4.285156 12.015625 -5.203125 C 12.015625 -6.117188 12.054688 -7.101562 12.140625 -8.15625 Z M 12.140625 -8.15625 "/></g></g></g><g fill="#ffffff" fill-opacity="1"><g transform="translate(71.537923, 334.275648)"><g><path d="M 2.46875 -1.828125 L 2.546875 -12.546875 L 2.546875 -16.890625 C 2.546875 -22.773438 2.445312 -26.382812 2.25 -27.71875 C 2.65625 -27.789062 3.09375 -27.828125 3.5625 -27.828125 C 4.707031 -27.828125 5.28125 -27.347656 5.28125 -26.390625 C 5.28125 -26.296875 5.269531 -25.632812 5.25 -24.40625 C 5.09375 -19.875 5.015625 -16.207031 5.015625 -13.40625 L 5.015625 -7.5625 C 5.015625 -4.238281 5.25 -1.78125 5.71875 -0.1875 C 5.269531 0.0078125 4.75 0.109375 4.15625 0.109375 C 3.550781 0.109375 3.117188 -0.0351562 2.859375 -0.328125 C 2.597656 -0.628906 2.46875 -1.128906 2.46875 -1.828125 Z M 2.46875 -1.828125 "/></g></g></g><g fill="#ffffff" fill-opacity="1"><g transform="translate(88.829945, 334.275648)"><g><path d="M 2.65625 -2.03125 L 2.734375 -8.640625 C 2.734375 -12.210938 2.644531 -15.132812 2.46875 -17.40625 C 2.875 -17.476562 3.300781 -17.515625 3.75 -17.515625 C 4.914062 -17.515625 5.5 -17.046875 5.5 -16.109375 C 5.5 -15.972656 5.472656 -15.472656 5.421875 -14.609375 C 5.273438 -11.941406 5.203125 -9.265625 5.203125 -6.578125 C 5.203125 -3.890625 5.441406 -1.757812 5.921875 -0.1875 C 5.472656 0.0078125 4.941406 0.109375 4.328125 0.109375 C 3.710938 0.109375 3.28125 -0.0507812 3.03125 -0.375 C 2.78125 -0.695312 2.65625 -1.25 2.65625 -2.03125 Z M 5.828125 -21.515625 C 5.828125 -20.941406 5.628906 -20.460938 5.234375 -20.078125 C 4.835938 -19.691406 4.382812 -19.5 3.875 -19.5 C 3.363281 -19.5 2.921875 -19.6875 2.546875 -20.0625 C 2.179688 -20.4375 2 -20.914062 2 -21.5 C 2 -22.070312 2.195312 -22.550781 2.59375 -22.9375 C 2.988281 -23.320312 3.441406 -23.515625 3.953125 -23.515625 C 4.460938 -23.515625 4.898438 -23.320312 5.265625 -22.9375 C 5.640625 -22.550781 5.828125 -22.078125 5.828125 -21.515625 Z M 5.828125 -21.515625 "/></g></g></g><g fill="#ffffff" fill-opacity="1"><g transform="translate(106.121973, 334.275648)"><g><path d="M 13.890625 -1.796875 L 14.109375 -11.5 C 14.109375 -12.882812 13.765625 -13.925781 13.078125 -14.625 C 12.390625 -15.332031 11.507812 -15.6875 10.4375 -15.6875 C 8.738281 -15.6875 7.066406 -15 5.421875 -13.625 C 5.472656 -10.226562 5.5 -7.539062 5.5 -5.5625 C 5.5 -3.570312 5.570312 -1.726562 5.71875 -0.03125 C 5.332031 0.0390625 4.910156 0.078125 4.453125 0.078125 C 3.335938 0.078125 2.78125 -0.398438 2.78125 -1.359375 C 2.78125 -1.453125 2.8125 -2.363281 2.875 -4.09375 C 2.9375 -5.832031 2.96875 -7.5625 2.96875 -9.28125 C 2.96875 -13.375 2.726562 -16.019531 2.25 -17.21875 C 2.75 -17.414062 3.195312 -17.515625 3.59375 -17.515625 C 4.738281 -17.515625 5.3125 -16.890625 5.3125 -15.640625 C 6.0625 -16.210938 7.023438 -16.710938 8.203125 -17.140625 C 9.378906 -17.566406 10.617188 -17.78125 11.921875 -17.78125 C 13.210938 -17.78125 14.320312 -17.363281 15.25 -16.53125 C 16.1875 -15.695312 16.65625 -14.351562 16.65625 -12.5 L 16.546875 -5.828125 C 16.546875 -3.535156 16.757812 -1.65625 17.1875 -0.1875 C 16.6875 0.0078125 16.15625 0.109375 15.59375 0.109375 C 15.03125 0.109375 14.601562 -0.03125 14.3125 -0.3125 C 14.03125 -0.601562 13.890625 -1.097656 13.890625 -1.796875 Z M 13.890625 -1.796875 "/></g></g></g><g fill="#ffffff" fill-opacity="1"><g transform="translate(134.874136, 334.275648)"><g><path d="M 5.203125 -15.796875 C 7.023438 -17.117188 8.9375 -17.78125 10.9375 -17.78125 C 12.925781 -17.78125 14.523438 -17.070312 15.734375 -15.65625 C 16.953125 -14.25 17.5625 -12.160156 17.5625 -9.390625 C 17.5625 -6.628906 16.882812 -4.3125 15.53125 -2.4375 C 14.1875 -0.570312 12.191406 0.359375 9.546875 0.359375 C 6.898438 0.359375 4.578125 -0.484375 2.578125 -2.171875 C 2.765625 -3.671875 2.859375 -5.945312 2.859375 -9 C 2.859375 -12.03125 2.789062 -15.664062 2.65625 -19.90625 C 2.53125 -24.15625 2.394531 -26.757812 2.25 -27.71875 C 2.539062 -27.789062 2.988281 -27.828125 3.59375 -27.828125 C 4.71875 -27.828125 5.28125 -27.347656 5.28125 -26.390625 C 5.28125 -26.066406 5.265625 -24.421875 5.234375 -21.453125 C 5.210938 -18.484375 5.203125 -16.597656 5.203125 -15.796875 Z M 5.25 -13.703125 L 5.28125 -8.15625 C 5.28125 -6.164062 5.242188 -4.671875 5.171875 -3.671875 C 6.628906 -2.367188 8.21875 -1.71875 9.9375 -1.71875 C 11.644531 -1.71875 12.90625 -2.4375 13.71875 -3.875 C 14.53125 -5.3125 14.9375 -7.082031 14.9375 -9.1875 C 14.9375 -11.300781 14.488281 -12.910156 13.59375 -14.015625 C 12.695312 -15.128906 11.570312 -15.6875 10.21875 -15.6875 C 8.425781 -15.6875 6.769531 -15.023438 5.25 -13.703125 Z M 5.25 -13.703125 "/></g></g></g><g fill="#ffffff" fill-opacity="1"><g transform="translate(163.205911, 334.275648)"><g><path d="M 2.46875 -1.828125 L 2.546875 -12.546875 L 2.546875 -16.890625 C 2.546875 -22.773438 2.445312 -26.382812 2.25 -27.71875 C 2.65625 -27.789062 3.09375 -27.828125 3.5625 -27.828125 C 4.707031 -27.828125 5.28125 -27.347656 5.28125 -26.390625 C 5.28125 -26.296875 5.269531 -25.632812 5.25 -24.40625 C 5.09375 -19.875 5.015625 -16.207031 5.015625 -13.40625 L 5.015625 -7.5625 C 5.015625 -4.238281 5.25 -1.78125 5.71875 -0.1875 C 5.269531 0.0078125 4.75 0.109375 4.15625 0.109375 C 3.550781 0.109375 3.117188 -0.0351562 2.859375 -0.328125 C 2.597656 -0.628906 2.46875 -1.128906 2.46875 -1.828125 Z M 2.46875 -1.828125 "/></g></g></g><g fill="#ffffff" fill-opacity="1"><g transform="translate(180.497939, 334.275648)"><g><path d="M 17.96875 -8.6875 C 17.96875 -5.9375 17.21875 -3.738281 15.71875 -2.09375 C 14.21875 -0.457031 12.253906 0.359375 9.828125 0.359375 C 7.390625 0.359375 5.421875 -0.457031 3.921875 -2.09375 C 2.429688 -3.738281 1.6875 -5.9375 1.6875 -8.6875 C 1.6875 -11.425781 2.429688 -13.625 3.921875 -15.28125 C 5.421875 -16.945312 7.390625 -17.78125 9.828125 -17.78125 C 12.253906 -17.78125 14.21875 -16.945312 15.71875 -15.28125 C 17.21875 -13.625 17.96875 -11.425781 17.96875 -8.6875 Z M 9.828125 -1.71875 C 11.566406 -1.71875 12.921875 -2.304688 13.890625 -3.484375 C 14.867188 -4.660156 15.359375 -6.269531 15.359375 -8.3125 C 15.359375 -10.363281 14.859375 -12.101562 13.859375 -13.53125 C 12.859375 -14.96875 11.5 -15.6875 9.78125 -15.6875 C 8.050781 -15.6875 6.707031 -15.09375 5.75 -13.90625 C 4.789062 -12.726562 4.3125 -11.113281 4.3125 -9.0625 C 4.3125 -7.019531 4.796875 -5.285156 5.765625 -3.859375 C 6.734375 -2.429688 8.085938 -1.71875 9.828125 -1.71875 Z M 9.828125 -1.71875 "/></g></g></g><g fill="#ffffff" fill-opacity="1"><g transform="translate(209.469435, 334.275648)"><g><path d="M 3.109375 2.96875 L 3 -8.640625 C 3 -12.210938 2.910156 -15.132812 2.734375 -17.40625 C 3.128906 -17.476562 3.550781 -17.515625 4 -17.515625 C 5.175781 -17.515625 5.765625 -17.046875 5.765625 -16.109375 C 5.765625 -15.992188 5.738281 -15.566406 5.6875 -14.828125 C 5.539062 -12.535156 5.46875 -9.960938 5.46875 -7.109375 L 5.609375 2.6875 C 5.609375 4.894531 5.0625 6.578125 3.96875 7.734375 C 2.875 8.890625 1.300781 9.46875 -0.75 9.46875 C -1.894531 9.46875 -2.894531 9.28125 -3.75 8.90625 C -4.613281 8.539062 -5.046875 8.078125 -5.046875 7.515625 C -5.046875 6.953125 -4.722656 6.429688 -4.078125 5.953125 C -3.054688 7.003906 -1.769531 7.53125 -0.21875 7.53125 C 0.78125 7.53125 1.582031 7.164062 2.1875 6.4375 C 2.800781 5.71875 3.109375 4.5625 3.109375 2.96875 Z M 6.171875 -21.515625 C 6.171875 -20.941406 5.96875 -20.460938 5.5625 -20.078125 C 5.164062 -19.691406 4.710938 -19.5 4.203125 -19.5 C 3.691406 -19.5 3.25 -19.6875 2.875 -20.0625 C 2.507812 -20.4375 2.328125 -20.914062 2.328125 -21.5 C 2.328125 -22.070312 2.523438 -22.550781 2.921875 -22.9375 C 3.328125 -23.320312 3.785156 -23.515625 4.296875 -23.515625 C 4.796875 -23.515625 5.234375 -23.320312 5.609375 -22.9375 C 5.984375 -22.550781 6.171875 -22.078125 6.171875 -21.515625 Z M 6.171875 -21.515625 "/></g></g></g><g fill="#ffffff" fill-opacity="1"><g transform="translate(227.218406, 334.275648)"><g><path d="M 5.734375 -0.296875 C 5.304688 0.140625 4.785156 0.359375 4.171875 0.359375 C 3.535156 0.359375 2.988281 0.140625 2.53125 -0.296875 C 2.082031 -0.742188 1.859375 -1.3125 1.859375 -2 C 1.859375 -2.664062 2.082031 -3.226562 2.53125 -3.6875 C 2.988281 -4.15625 3.535156 -4.390625 4.171875 -4.390625 C 4.785156 -4.390625 5.304688 -4.15625 5.734375 -3.6875 C 6.171875 -3.226562 6.390625 -2.664062 6.390625 -2 C 6.390625 -1.3125 6.171875 -0.742188 5.734375 -0.296875 Z M 5.734375 -0.296875 "/></g></g></g><g fill="#ffffff" fill-opacity="1"><g transform="translate(245.186697, 334.275648)"><g><path d="M 9.78125 -1.71875 C 10.519531 -1.71875 11.273438 -1.878906 12.046875 -2.203125 C 12.828125 -2.523438 13.378906 -3.015625 13.703125 -3.671875 C 14.691406 -3.273438 15.1875 -2.773438 15.1875 -2.171875 C 15.1875 -1.347656 14.617188 -0.71875 13.484375 -0.28125 C 12.359375 0.144531 11.082031 0.359375 9.65625 0.359375 C 7.382812 0.359375 5.488281 -0.378906 3.96875 -1.859375 C 2.445312 -3.335938 1.6875 -5.550781 1.6875 -8.5 C 1.6875 -10.070312 1.9375 -11.472656 2.4375 -12.703125 C 2.9375 -13.941406 3.597656 -14.921875 4.421875 -15.640625 C 6.085938 -17.066406 7.921875 -17.78125 9.921875 -17.78125 C 11.191406 -17.78125 12.398438 -17.492188 13.546875 -16.921875 C 14.703125 -16.347656 15.28125 -15.539062 15.28125 -14.5 C 15.28125 -13.59375 14.675781 -13.054688 13.46875 -12.890625 C 13.226562 -13.773438 12.703125 -14.460938 11.890625 -14.953125 C 11.078125 -15.441406 10.222656 -15.6875 9.328125 -15.6875 C 7.921875 -15.6875 6.738281 -15.066406 5.78125 -13.828125 C 4.820312 -12.585938 4.34375 -10.847656 4.34375 -8.609375 C 4.34375 -6.367188 4.84375 -4.660156 5.84375 -3.484375 C 6.851562 -2.304688 8.164062 -1.71875 9.78125 -1.71875 Z M 9.78125 -1.71875 "/></g></g></g><g fill="#ffffff" fill-opacity="1"><g transform="translate(271.233756, 334.275648)"><g><path d="M 17.96875 -8.6875 C 17.96875 -5.9375 17.21875 -3.738281 15.71875 -2.09375 C 14.21875 -0.457031 12.253906 0.359375 9.828125 0.359375 C 7.390625 0.359375 5.421875 -0.457031 3.921875 -2.09375 C 2.429688 -3.738281 1.6875 -5.9375 1.6875 -8.6875 C 1.6875 -11.425781 2.429688 -13.625 3.921875 -15.28125 C 5.421875 -16.945312 7.390625 -17.78125 9.828125 -17.78125 C 12.253906 -17.78125 14.21875 -16.945312 15.71875 -15.28125 C 17.21875 -13.625 17.96875 -11.425781 17.96875 -8.6875 Z M 9.828125 -1.71875 C 11.566406 -1.71875 12.921875 -2.304688 13.890625 -3.484375 C 14.867188 -4.660156 15.359375 -6.269531 15.359375 -8.3125 C 15.359375 -10.363281 14.859375 -12.101562 13.859375 -13.53125 C 12.859375 -14.96875 11.5 -15.6875 9.78125 -15.6875 C 8.050781 -15.6875 6.707031 -15.09375 5.75 -13.90625 C 4.789062 -12.726562 4.3125 -11.113281 4.3125 -9.0625 C 4.3125 -7.019531 4.796875 -5.285156 5.765625 -3.859375 C 6.734375 -2.429688 8.085938 -1.71875 9.828125 -1.71875 Z M 9.828125 -1.71875 "/></g></g></g><g fill="#ffffff" fill-opacity="1"><g transform="translate(300.205251, 334.275648)"><g><path d="M 23.40625 -1.796875 L 23.625 -11.5 C 23.625 -12.914062 23.328125 -13.96875 22.734375 -14.65625 C 22.148438 -15.34375 21.382812 -15.6875 20.4375 -15.6875 C 18.988281 -15.6875 17.441406 -15.023438 15.796875 -13.703125 C 15.835938 -10.304688 15.859375 -7.601562 15.859375 -5.59375 C 15.859375 -3.582031 15.941406 -1.726562 16.109375 -0.03125 C 15.703125 0.0390625 15.273438 0.078125 14.828125 0.078125 C 13.703125 0.078125 13.140625 -0.398438 13.140625 -1.359375 C 13.140625 -1.453125 13.15625 -1.953125 13.1875 -2.859375 C 13.28125 -4.992188 13.328125 -7.875 13.328125 -11.5 C 13.328125 -14.289062 12.226562 -15.6875 10.03125 -15.6875 C 8.601562 -15.6875 7.066406 -15 5.421875 -13.625 C 5.472656 -10.226562 5.5 -7.539062 5.5 -5.5625 C 5.5 -3.570312 5.570312 -1.726562 5.71875 -0.03125 C 5.332031 0.0390625 4.910156 0.078125 4.453125 0.078125 C 3.335938 0.078125 2.78125 -0.398438 2.78125 -1.359375 C 2.78125 -1.453125 2.8125 -2.363281 2.875 -4.09375 C 2.9375 -5.832031 2.96875 -7.5625 2.96875 -9.28125 C 2.96875 -13.375 2.726562 -16.019531 2.25 -17.21875 C 2.75 -17.414062 3.195312 -17.515625 3.59375 -17.515625 C 4.738281 -17.515625 5.3125 -16.890625 5.3125 -15.640625 C 6.082031 -16.265625 7.003906 -16.773438 8.078125 -17.171875 C 9.148438 -17.578125 10.1875 -17.78125 11.1875 -17.78125 C 13.238281 -17.78125 14.628906 -16.972656 15.359375 -15.359375 C 16.023438 -16.023438 16.960938 -16.59375 18.171875 -17.0625 C 19.390625 -17.539062 20.601562 -17.78125 21.8125 -17.78125 C 23.019531 -17.78125 24.046875 -17.363281 24.890625 -16.53125 C 25.742188 -15.695312 26.171875 -14.351562 26.171875 -12.5 L 26.046875 -5.828125 C 26.046875 -3.535156 26.257812 -1.65625 26.6875 -0.1875 C 26.1875 0.0078125 25.65625 0.109375 25.09375 0.109375 C 24.53125 0.109375 24.109375 -0.03125 23.828125 -0.3125 C 23.546875 -0.601562 23.40625 -1.097656 23.40625 -1.796875 Z M 23.40625 -1.796875 "/></g></g></g><g fill="#ffffff" fill-opacity="1"><g transform="translate(338.461832, 334.275648)"><g><path d="M 12.609375 -9.390625 L 4.5 -16.390625 C 4.664062 -16.722656 4.914062 -17.019531 5.25 -17.28125 C 5.59375 -17.539062 5.929688 -17.671875 6.265625 -17.671875 C 6.609375 -17.671875 6.9375 -17.53125 7.25 -17.25 L 15.46875 -9.390625 L 7.25 -1.078125 C 6.988281 -0.804688 6.679688 -0.671875 6.328125 -0.671875 C 5.554688 -0.671875 4.945312 -1.09375 4.5 -1.9375 C 8.976562 -5.976562 11.679688 -8.460938 12.609375 -9.390625 Z M 12.609375 -9.390625 "/></g></g></g></svg>